# xmcd
#
# Track frame offsets: 
#        150
#        12103
#        28927
#        46664
#        62032
#        78731
#        98700
#        112318
#        130669
#        146722
#        160394
#
# Disc length: 2390 seconds
#
# Revision: 0
# Processed by: cddbd v1.5.2PL0 Copyright (c) Steve Scherf et al.
# Submitted via: ExactAudioCopyFreeDBPlugin 1.0
#
DISCID=9409540b
DTITLE=Dolly Parton, Linda Ronstadt, Emmylou Harris - 1987 - Trio
DYEAR=2013
DGENRE=
TTITLE0=The Pain Of Loving You
TTITLE1=Making Plans [-]
TTITLE2=To Know Him Is To Love Him
TTITLE3=Hobo's Meditation
TTITLE4=Wildflowers
TTITLE5=Telling Me Lies
TTITLE6=My Dear Companion
TTITLE7=Those Memories Of You
TTITLE8=I've Had Enough [m]
TTITLE9=Rosewood Casket
TTITLE10=Farther Along
EXTD=
EXTT0=
EXTT1=
EXTT2=
EXTT3=
EXTT4=
EXTT5=
EXTT6=
EXTT7=
EXTT8=
EXTT9=
EXTT10=
PLAYORDER=
